<svg width="72" height="72" viewBox="0 0 72 72" fill="none" xmlns="http://www.w3.org/2000/svg">
<rect width="72" height="72" rx="16" fill="#302C3F"/>
<path opacity="0.4" d="M45.3511 16H26.6667C19.8578 16 16 19.8578 16 26.6667V45.3333C16 52.1422 19.8578 56 26.6667 56H45.3511C52.16 56 56 52.1422 56 45.3333V26.6667C56 19.8578 52.16 16 45.3511 16Z" fill="white"/>
<path d="M26.7373 30.7383C25.8307 30.7383 25.084 31.4849 25.084 32.4094V46.1516C25.084 47.0583 25.8307 47.8049 26.7373 47.8049C27.6618 47.8049 28.4084 47.0583 28.4084 46.1516V32.4094C28.4084 31.4849 27.6618 30.7383 26.7373 30.7383Z" fill="white"/>
<path d="M36.0708 24.1777C35.1641 24.1777 34.4175 24.9244 34.4175 25.8488V46.1511C34.4175 47.0577 35.1641 47.8044 36.0708 47.8044C36.9953 47.8044 37.7419 47.0577 37.7419 46.1511V25.8488C37.7419 24.9244 36.9953 24.1777 36.0708 24.1777Z" fill="white"/>
<path d="M45.2798 37.9912C44.3553 37.9912 43.6086 38.7379 43.6086 39.6623V46.1512C43.6086 47.0579 44.3553 47.8045 45.262 47.8045C46.1864 47.8045 46.9331 47.0579 46.9331 46.1512V39.6623C46.9331 38.7379 46.1864 37.9912 45.2798 37.9912Z" fill="white"/>
</svg>
